<svg width="17.765625" height="13.322266" viewBox="0 0 17.7656 13.3223" fill="none" xmlns="http://www.w3.org/2000/svg" xmlns:xlink="http://www.w3.org/1999/xlink">
	<desc>
			Created with Pixso.
	</desc>
	<defs/>
	<path id="Arrow 1" d="M15.34 6.66L10.39 11.61C10 12 10 12.62 10.39 13.02C10.79 13.42 11.41 13.42 11.81 13.02L17.46 7.36C17.86 6.97 17.86 6.34 17.46 5.95L11.81 0.29C11.41 -0.1 10.79 -0.1 10.39 0.29C10 0.69 10 1.31 10.39 1.71L15.34 6.66Z" fill="#FAF4EA" fill-opacity="0.700000" fill-rule="nonzero"/>
	<path id="Arrow 1" d="M14.34 7.66L10.39 11.61C10 12 10 12.62 10.39 13.02C10.79 13.42 11.41 13.42 11.81 13.02L17.46 7.36C17.86 6.97 17.86 6.34 17.46 5.95L11.81 0.29C11.41 -0.1 10.79 -0.1 10.39 0.29C10 0.69 10 1.31 10.39 1.71L14.34 5.66L0 5.66L0 7.66L14.34 7.66Z" fill="#31261A" fill-opacity="1.000000" fill-rule="evenodd"/>
</svg>
