<svg width="106.171875" height="44.605469" viewBox="0 0 106.172 44.6055" fill="none" xmlns="http://www.w3.org/2000/svg" xmlns:xlink="http://www.w3.org/1999/xlink">
	<desc>
			Created with Pixso.
	</desc>
	<defs/>
	<path id="logo" d="M41.78 1.03Q39.84 0 37.35 0Q34.83 0 32.89 1.06Q31.91 1.59 31.07 2.4Q30.07 3.37 29.47 4.54Q28.59 6.28 28.59 8.47Q28.59 10.51 29.39 12.16Q29.99 13.4 31.05 14.42Q31.94 15.27 32.99 15.82Q34.85 16.79 37.23 16.79Q39.95 16.79 42.01 15.62Q42.89 15.13 43.65 14.42Q44.78 13.37 45.41 12.07Q46.2 10.44 46.2 8.42Q46.2 6.4 45.41 4.75Q44.79 3.46 43.67 2.4Q42.8 1.57 41.78 1.03ZM3.09 8.66L4.87 9.73Q6.91 11 7.02 12.41Q7.03 12.49 7.03 12.57Q7.03 12.98 6.88 13.33Q6.7 13.77 6.29 14.12Q6.15 14.23 5.99 14.33Q5.35 14.73 4.46 14.73Q3.85 14.73 3.28 14.58Q1.5 14.14 0.07 12.32L0.07 15.3Q1.19 16.14 2.44 16.5Q3.42 16.79 4.48 16.79Q6.13 16.79 7.3 16.04Q7.62 15.83 7.91 15.56Q8.39 15.11 8.7 14.55Q9.23 13.6 9.23 12.36Q9.23 11.6 9.01 10.92Q8.41 9.11 6.23 7.81L4.44 6.76Q3.23 6.05 2.69 5.41Q2.28 4.91 2.18 4.36Q2.15 4.2 2.15 4.03Q2.15 3.7 2.27 3.41Q2.44 2.98 2.89 2.67Q3.63 2.13 4.78 2.13Q5.15 2.13 5.52 2.19Q7.14 2.44 8.58 3.83L8.58 1.17Q7.71 0.58 6.74 0.29Q5.82 0.02 4.82 0.02Q3.07 0.02 1.85 0.82Q1.58 1 1.33 1.23Q0.81 1.7 0.49 2.28Q0 3.19 0 4.37Q0 5.21 0.29 5.92Q0.45 6.3 0.7 6.65Q1.41 7.64 3.09 8.66ZM48.94 0.21L48.94 16.6L51.3 16.6L51.3 9.5L53.03 9.5Q55.35 9.5 56.6 9.01Q57.29 8.73 57.82 8.26Q58.24 7.89 58.55 7.4Q58.73 7.13 58.86 6.85Q59.27 5.95 59.27 4.87Q59.27 3.41 58.61 2.35Q58.31 1.87 57.87 1.47Q57.72 1.33 57.55 1.21Q56.22 0.21 54.14 0.21L48.94 0.21ZM25.69 0.23L23.35 0.23L23.35 7.31L14.15 7.31L14.15 0.23L11.81 0.23L11.81 16.6L14.15 16.6L14.15 9.48L23.35 9.48L23.35 16.6L25.69 16.6L25.69 0.23ZM34.06 3.05Q35.52 2.22 37.45 2.22Q39 2.22 40.27 2.82Q41.18 3.26 41.95 4Q42.81 4.83 43.27 5.85Q43.79 6.99 43.79 8.37Q43.79 9.88 43.2 11.11Q42.75 12.06 41.95 12.84Q41.25 13.52 40.42 13.95Q39.07 14.63 37.38 14.63Q35.64 14.63 34.28 13.92Q33.49 13.51 32.83 12.87Q32.06 12.13 31.62 11.22Q31.01 9.99 31.01 8.47Q31.01 6.74 31.74 5.41Q32.15 4.63 32.82 3.98Q33.39 3.43 34.06 3.05ZM51.3 2.29L53.73 2.29Q55.61 2.29 56.36 3.21Q56.84 3.82 56.84 4.81Q56.84 5.78 56.38 6.41Q56.24 6.59 56.07 6.75Q55.3 7.41 53.87 7.41L51.3 7.41L51.3 2.29ZM15.31 42.32Q15.89 41.33 15.89 40Q15.89 38.65 15.26 37.73Q15.14 37.56 15.01 37.41Q14.14 36.4 12.48 35.74Q13 35.54 13.52 35.06Q14.05 34.57 14.4 33.82Q14.46 33.68 14.51 33.54Q14.75 32.9 14.75 32.17Q14.75 31.51 14.53 30.94Q14.48 30.79 14.41 30.66Q14.39 30.61 14.36 30.57Q14.03 29.93 13.38 29.46Q12.69 28.94 11.55 28.65Q10.42 28.36 8.9 28.36L1.05 28.36L1.05 44.6L10.44 44.6Q13.01 44.6 14.44 43.35Q14.97 42.89 15.31 42.32ZM31.14 44.6L36.16 44.6L29 28.36L23.58 28.36L16.4 44.6L21.42 44.6L22.76 41.31L29.82 41.31L31.14 44.6ZM49.42 44.6L55.4 44.6L48.37 35.96L54.42 28.36L49.1 28.36L43.21 35.62L43.21 28.36L38.32 28.36L38.32 44.6L43.21 44.6L43.21 37L49.42 44.6ZM57.53 44.6L69.78 44.6L69.78 41.33L62.43 41.33L62.43 37.86L69.25 37.86L69.25 34.59L62.43 34.59L62.43 31.62L69.58 31.62L69.58 28.36L57.53 28.36L57.53 44.6ZM83.54 44.6L88.8 44.6L87.16 41.07Q86.28 39.16 85.76 38.54Q85.26 37.91 84.48 37.45Q85.13 37.1 85.66 36.71Q86.19 36.33 86.66 35.48Q87.14 34.63 87.14 33.4Q87.14 32.34 86.56 31.17L86.56 31.16Q85.99 29.99 84.71 29.18Q83.42 28.36 81.41 28.36L73.07 28.36L73.07 44.6L77.97 44.6L77.97 38.26L78.52 38.26Q79.37 38.26 79.89 38.47Q80.43 38.67 81 39.41Q81.56 40.14 82.26 41.72L83.54 44.6ZM99.8 37.16L106.17 28.36L100.98 28.36L97.24 33.47L93.51 28.36L88.42 28.36L94.91 37.25L94.91 44.6L99.8 44.6L99.8 37.16ZM9.72 31.71Q10.17 32.15 10.17 33.03Q10.17 33.95 9.71 34.39Q9.58 34.51 9.42 34.59Q8.68 34.98 7 34.98L5.95 34.98L5.95 31.09L6.98 31.09Q8.62 31.09 9.39 31.48Q9.58 31.57 9.72 31.71ZM81.72 32.17Q82.14 32.64 82.14 33.49Q82.14 34.42 81.68 34.85Q81.59 34.94 81.48 35Q80.82 35.39 79.03 35.39L77.97 35.39L77.97 31.48L79 31.48Q80.67 31.48 81.41 31.92Q81.58 32.03 81.72 32.17ZM26.32 32.55L28.69 38.48L23.91 38.48L26.32 32.55ZM10.65 38.67Q10.96 39.12 10.96 39.8Q10.96 40.46 10.65 40.91Q10 41.87 7.94 41.87L5.95 41.87L5.95 37.71L7.94 37.71Q9.99 37.71 10.65 38.67Z" fill="#FAF4EA" fill-opacity="1.000000" fill-rule="evenodd"/>
</svg>
